<svg width="14" height="12" viewBox="0 0 14 12" fill="none" xmlns="http://www.w3.org/2000/svg">
<path fill-rule="evenodd" clip-rule="evenodd" d="M6.08067 11.41C5.89749 11.297 5.70758 11.1952 5.512 11.1053C5.02333 10.8793 4.37133 10.6667 3.66667 10.6667C2.814 10.6667 2.04133 10.9787 1.54667 11.2413C1.39055 11.3231 1.21653 11.3647 1.04031 11.3623C0.8641 11.36 0.69124 11.3138 0.537333 11.228C0.375694 11.1409 0.240501 11.0118 0.145953 10.8544C0.0514047 10.6969 0.000988906 10.517 0 10.3333V2C0 1.586 0.196667 1.158 0.598667 0.914C1.11467 0.600667 2.276 0 3.66667 0C4.72067 0 5.76333 0.34 6.66667 0.873333C7.57 0.34 8.61267 0 9.66667 0C11.0573 0 12.2187 0.6 12.7347 0.914C13.1367 1.158 13.3333 1.586 13.3333 2V10.3333C13.3333 10.7553 13.0807 11.0707 12.796 11.228C12.642 11.314 12.469 11.3602 12.2927 11.3625C12.1163 11.3649 11.9422 11.3232 11.786 11.2413C11.292 10.9787 10.5193 10.6667 9.66667 10.6667C8.962 10.6667 8.31 10.88 7.82133 11.1053C7.62576 11.1952 7.43585 11.297 7.25267 11.41C7.06333 11.528 6.90333 11.6667 6.66733 11.6667C6.43 11.6667 6.27067 11.528 6.08067 11.41ZM1.33333 9.86267V2.028C1.782 1.76133 2.66667 1.33333 3.66667 1.33333C4.48667 1.33333 5.29867 1.612 6 2.028V9.86267C5.41 9.59867 4.59133 9.33333 3.66667 9.33333C2.746 9.33333 1.92733 9.59667 1.33333 9.86267ZM7.33333 9.86267C7.92333 9.59867 8.742 9.33333 9.66667 9.33333C10.5873 9.33333 11.406 9.59667 12 9.86267V2.028C11.5513 1.76133 10.6667 1.33333 9.66667 1.33333C8.84667 1.33333 8.03467 1.612 7.33333 2.028V9.86267Z" fill="#972DE8"/>
</svg>
