<svg width="12" height="13" viewBox="0 0 12 13" fill="none" xmlns="http://www.w3.org/2000/svg">
<path fill-rule="evenodd" clip-rule="evenodd" d="M0.17 1.11133C0.0862521 1.01355 0.0322932 0.893807 0.0145184 0.766295C-0.00325633 0.638783 0.0158982 0.508848 0.0697118 0.391889C0.123526 0.27493 0.209742 0.175851 0.318144 0.106394C0.426546 0.0369368 0.552588 1.34601e-05 0.681333 0H9C9.39397 -5.87055e-09 9.78407 0.0775973 10.1481 0.228361C10.512 0.379126 10.8427 0.600104 11.1213 0.87868C11.3999 1.15726 11.6209 1.48797 11.7716 1.85195C11.9224 2.21593 12 2.60603 12 3C12 3.39397 11.9224 3.78407 11.7716 4.14805C11.6209 4.51203 11.3999 4.84274 11.1213 5.12132C10.8427 5.3999 10.512 5.62087 10.1481 5.77164C9.78407 5.9224 9.39397 6 9 6H0.681333C0.552588 5.99999 0.426546 5.96306 0.318144 5.89361C0.209742 5.82415 0.123526 5.72507 0.0697118 5.60811C0.0158982 5.49115 -0.00325633 5.36122 0.0145184 5.23371C0.0322932 5.10619 0.0862521 4.98645 0.17 4.88867L0.672667 4.302C0.983414 3.9395 1.15423 3.47779 1.15423 3.00033C1.15423 2.52287 0.983414 2.06116 0.672667 1.69867L0.17 1.11133ZM0 9.66667C0 8.87102 0.31607 8.10796 0.87868 7.54535C1.44129 6.98274 2.20435 6.66667 3 6.66667H11.3187C11.4474 6.66668 11.5735 6.7036 11.6819 6.77306C11.7903 6.84252 11.8765 6.9416 11.9303 7.05856C11.9841 7.17551 12.0033 7.30545 11.9855 7.43296C11.9677 7.56047 11.9137 7.68022 11.83 7.778L11.3267 8.36467C11.0159 8.72717 10.8451 9.18887 10.8451 9.66633C10.8451 10.1438 11.0159 10.6055 11.3267 10.968L11.83 11.5547C11.914 11.6524 11.9681 11.7722 11.986 11.8999C12.0039 12.0275 11.9848 12.1576 11.9309 12.2746C11.8771 12.3917 11.7908 12.4909 11.6823 12.5604C11.5737 12.6299 11.4475 12.6668 11.3187 12.6667H3C2.20435 12.6667 1.44129 12.3506 0.87868 11.788C0.31607 11.2254 0 10.4623 0 9.66667Z" fill="#7ED678"/>
</svg>
