<svg width="16" height="16" viewBox="0 0 16 16" fill="none" xmlns="http://www.w3.org/2000/svg">
<path d="M8 1.33337C4.32 1.33337 1.33337 4.32004 1.33337 8.00004C1.33337 11.68 4.32 14.6667 8 14.6667C11.68 14.6667 14.6667 11.68 14.6667 8.00004C14.6667 4.32004 11.68 1.33337 8 1.33337ZM8 13.3334C5.06 13.3334 2.66671 10.94 2.66671 8.00004C2.66671 5.06004 5.06 2.66671 8 2.66671C10.94 2.66671 13.3334 5.06004 13.3334 8.00004C13.3334 10.94 10.94 13.3334 8 13.3334Z" fill="#CEE0FD"/>
<path d="M8.33337 4.66671H7.33337V8.39337L10.1067 10.06L10.6667 9.14004L8.33337 7.72671V4.66671Z" fill="#CEE0FD"/>
</svg>
