<svg width="57" height="59" viewBox="0 0 57 59" fill="none" xmlns="http://www.w3.org/2000/svg">
<path fill-rule="evenodd" clip-rule="evenodd" d="M28.1842 0C43.7503 0 56.3683 13.0579 56.3683 29.1667C56.3683 31.0596 56.1936 32.9117 55.861 34.7083C54.8097 40.3521 49.4914 42.8488 44.8494 42.2771L44.3562 42.2042L39.4522 41.3583C38.8815 41.2599 38.2964 41.3038 37.7454 41.4864C37.1944 41.669 36.6935 41.9851 36.2843 42.4083C35.2415 43.4875 34.7426 44.9721 35.4444 46.4217C36.6366 48.8892 36.6535 51.7067 35.5994 54.0137C34.1902 57.1083 31.3126 58.3333 28.1842 58.3333C12.618 58.3333 0 45.2754 0 29.1667C0 13.0579 12.618 0 28.1842 0ZM15.5013 26.25C14.9461 26.25 14.3964 26.3632 13.8834 26.583C13.3705 26.8029 12.9045 27.1252 12.5119 27.5314C12.1193 27.9377 11.8079 28.42 11.5955 28.9508C11.383 29.4816 11.2737 30.0505 11.2737 30.625C11.2737 31.1995 11.383 31.7684 11.5955 32.2992C11.8079 32.83 12.1193 33.3123 12.5119 33.7186C12.9045 34.1249 13.3705 34.4471 13.8834 34.667C14.3964 34.8868 14.9461 35 15.5013 35C16.6225 35 17.6978 34.5391 18.4907 33.7186C19.2835 32.8981 19.7289 31.7853 19.7289 30.625C19.7289 29.4647 19.2835 28.3519 18.4907 27.5314C17.6978 26.7109 16.6225 26.25 15.5013 26.25ZM35.2302 14.5833C34.109 14.5833 33.0336 15.0443 32.2408 15.8647C31.448 16.6852 31.0026 17.798 31.0026 18.9583C31.0026 20.1187 31.448 21.2315 32.2408 22.0519C33.0336 22.8724 34.109 23.3333 35.2302 23.3333C36.3514 23.3333 37.4267 22.8724 38.2196 22.0519C39.0124 21.2315 39.4578 20.1187 39.4578 18.9583C39.4578 17.798 39.0124 16.6852 38.2196 15.8647C37.4267 15.0443 36.3514 14.5833 35.2302 14.5833ZM21.1381 14.5833C20.0169 14.5833 18.9416 15.0443 18.1487 15.8647C17.3559 16.6852 16.9105 17.798 16.9105 18.9583C16.9105 20.1187 17.3559 21.2315 18.1487 22.0519C18.9416 22.8724 20.0169 23.3333 21.1381 23.3333C22.2593 23.3333 23.3347 22.8724 24.1275 22.0519C24.9203 21.2315 25.3657 20.1187 25.3657 18.9583C25.3657 17.798 24.9203 16.6852 24.1275 15.8647C23.3347 15.0443 22.2593 14.5833 21.1381 14.5833Z" fill="#3E5C8E"/>
</svg>
