<svg width="14" height="14" viewBox="0 0 14 14" fill="none" xmlns="http://www.w3.org/2000/svg">
<path d="M6.13888 0.413757C6.21224 0.287863 6.31733 0.183406 6.44367 0.110806C6.57 0.0382057 6.71317 0 6.85888 0C7.00459 0 7.14775 0.0382057 7.27409 0.110806C7.40042 0.183406 7.50551 0.287863 7.57888 0.413757L9.44221 3.61242L13.0609 4.39642C13.2032 4.42735 13.335 4.49506 13.443 4.59278C13.551 4.6905 13.6315 4.81483 13.6765 4.95337C13.7215 5.09191 13.7294 5.23983 13.6994 5.38237C13.6694 5.52491 13.6026 5.6571 13.5055 5.76576L11.0389 8.52642L11.4122 12.2098C11.4269 12.3548 11.4034 12.5012 11.3438 12.6342C11.2843 12.7673 11.1909 12.8824 11.073 12.9681C10.955 13.0538 10.8167 13.1071 10.6717 13.1226C10.5267 13.1381 10.3803 13.1153 10.2469 13.0564L6.85888 11.5631L3.47088 13.0564C3.33749 13.1153 3.191 13.1381 3.04605 13.1226C2.90109 13.1071 2.76273 13.0538 2.64479 12.9681C2.52685 12.8824 2.43345 12.7673 2.37392 12.6342C2.31439 12.5012 2.29082 12.3548 2.30554 12.2098L2.67888 8.52642L0.21221 5.76642C0.115029 5.65777 0.0480471 5.52553 0.0179526 5.3829C-0.0121418 5.24027 -0.00429631 5.09224 0.0407059 4.95359C0.0857081 4.81494 0.166293 4.69052 0.274414 4.59276C0.382536 4.49499 0.514412 4.42729 0.656877 4.39642L4.27554 3.61242L6.13888 0.413757Z" fill="#E8E829"/>
</svg>
