<svg width="14" height="10" viewBox="0 0 14 10" fill="none" xmlns="http://www.w3.org/2000/svg">
<path fill-rule="evenodd" clip-rule="evenodd" d="M6.508 1.63C6.4471 1.53872 6.36461 1.46389 6.26786 1.41214C6.1711 1.36039 6.06306 1.33332 5.95333 1.33333H2.66667C2.48986 1.33333 2.32029 1.2631 2.19526 1.13807C2.07024 1.01305 2 0.843478 2 0.666667C2 0.489856 2.07024 0.320287 2.19526 0.195262C2.32029 0.070238 2.48986 0 2.66667 0H5.95333C6.28258 2.3919e-05 6.60672 0.0813309 6.897 0.236704C7.18728 0.392077 7.43471 0.616711 7.61733 0.890667L8.35733 2H8.66667C9.1971 2 9.70581 2.21071 10.0809 2.58579C10.456 2.96086 10.6667 3.46957 10.6667 4V4.14L11.8087 3.436C11.9601 3.34265 12.1338 3.2914 12.3116 3.28754C12.4895 3.28368 12.6652 3.32735 12.8206 3.41403C12.9759 3.50072 13.1054 3.62729 13.1955 3.78069C13.2856 3.93408 13.3332 4.10875 13.3333 4.28667V7.712C13.3333 7.88998 13.2858 8.06473 13.1958 8.21821C13.1057 8.3717 12.9762 8.49837 12.8209 8.58514C12.6655 8.6719 12.4897 8.71563 12.3118 8.71179C12.1339 8.70796 11.9602 8.65671 11.8087 8.56333L10.6667 7.86V8C10.6667 8.53043 10.456 9.03914 10.0809 9.41421C9.70581 9.78929 9.1971 10 8.66667 10H2C1.46957 10 0.960859 9.78929 0.585786 9.41421C0.210714 9.03914 0 8.53043 0 8V4C0 3.46957 0.210714 2.96086 0.585786 2.58579C0.960859 2.21071 1.46957 2 2 2H6.75467L6.508 1.63Z" fill="#4B4C4E"/>
</svg>
