<svg width="22" height="27" viewBox="0 0 22 27" fill="none" xmlns="http://www.w3.org/2000/svg">
<path fill-rule="evenodd" clip-rule="evenodd" d="M0 4C0 2.93913 0.421428 1.92172 1.17157 1.17157C1.92172 0.421427 2.93913 0 4 0H18.6667C19.3739 0 20.0522 0.280951 20.5523 0.781048C21.0524 1.28115 21.3333 1.95942 21.3333 2.66667V19.9867C21.3333 20.2107 21.2827 20.416 21.1827 20.616L20.456 22.0693C20.3633 22.2546 20.315 22.4589 20.315 22.666C20.315 22.8731 20.3633 23.0774 20.456 23.2627L21.18 24.7133C21.2867 24.9165 21.3392 25.1438 21.3323 25.3732C21.3255 25.6026 21.2595 25.8263 21.1408 26.0228C21.0222 26.2192 20.8548 26.3817 20.655 26.4945C20.4551 26.6073 20.2295 26.6666 20 26.6667H4C2.93913 26.6667 1.92172 26.2452 1.17157 25.4951C0.421428 24.7449 0 23.7275 0 22.6667V4ZM4 21.3333H17.8773C17.5723 22.1961 17.5723 23.1373 17.8773 24H4C3.64638 24 3.30724 23.8595 3.05719 23.6095C2.80714 23.3594 2.66667 23.0203 2.66667 22.6667C2.66667 22.313 2.80714 21.9739 3.05719 21.7239C3.30724 21.4738 3.64638 21.3333 4 21.3333ZM8 6.66667C7.64638 6.66667 7.30724 6.80714 7.05719 7.05719C6.80714 7.30724 6.66667 7.64638 6.66667 8C6.66667 8.35362 6.80714 8.69276 7.05719 8.94281C7.30724 9.19286 7.64638 9.33333 8 9.33333H13.3333C13.687 9.33333 14.0261 9.19286 14.2761 8.94281C14.5262 8.69276 14.6667 8.35362 14.6667 8C14.6667 7.64638 14.5262 7.30724 14.2761 7.05719C14.0261 6.80714 13.687 6.66667 13.3333 6.66667H8Z" fill="#D6E3F5"/>
</svg>
