<svg width="27" height="24" viewBox="0 0 27 24" fill="none" xmlns="http://www.w3.org/2000/svg">
<path fill-rule="evenodd" clip-rule="evenodd" d="M19.3333 0C22.1147 0 24.4373 1.2 25.4693 1.828C26.2733 2.316 26.6667 3.172 26.6667 4V20.6667C26.6667 21.5107 26.1613 22.1413 25.5907 22.456C25.2831 22.6277 24.9376 22.72 24.5854 22.7247C24.2332 22.7293 23.8853 22.6462 23.5733 22.4827C22.584 21.956 21.0387 21.3333 19.3333 21.3333C17.924 21.3333 16.62 21.76 15.6413 22.2107C15.2507 22.3907 14.8714 22.5942 14.5053 22.82C14.128 23.0547 13.7987 23.3333 13.3333 23.3333C12.86 23.3333 12.5413 23.056 12.1613 22.82C11.7953 22.5942 11.4159 22.3907 11.0253 22.2107C10.0467 21.76 8.74267 21.3333 7.33333 21.3333C5.628 21.3333 4.08267 21.956 3.09333 22.4813C2.78133 22.6448 2.43351 22.728 2.08129 22.7234C1.72908 22.7187 1.38357 22.6264 1.076 22.4547C0.752297 22.2811 0.481459 22.0234 0.292072 21.7087C0.102686 21.394 0.00177774 21.034 0 20.6667V4C0 3.172 0.393333 2.316 1.196 1.828C2.22933 1.20133 4.552 0 7.33333 0C9.25733 0 10.9533 0.573333 12.1413 1.12267C12.6147 1.34133 13.0173 1.56 13.3333 1.74667C13.6493 1.56 14.052 1.34133 14.5253 1.12267C15.712 0.573333 17.4093 0 19.3333 0ZM18.6667 11.3333C18.184 11.3333 17.8667 11.584 17.74 11.704C17.58 11.856 17.4867 12.0333 17.3827 12.224C17.2573 12.443 17.0724 12.6219 16.8493 12.74C16.6707 12.8333 16.5067 12.9293 16.3653 13.08C16.1315 13.3296 16.0015 13.6587 16.0015 14.0007C16.0015 14.3426 16.1315 14.6718 16.3653 14.9213C16.5027 15.0693 16.6733 15.168 16.8507 15.2613C17.1 15.3973 17.2773 15.5827 17.384 15.776C17.4853 15.9667 17.5787 16.1453 17.74 16.296C17.868 16.4173 18.184 16.668 18.6667 16.668C19.1493 16.668 19.464 16.42 19.592 16.2987C19.7533 16.1453 19.8467 15.968 19.9507 15.776C20.0762 15.5575 20.2612 15.379 20.484 15.2613C20.6613 15.164 20.828 15.0733 20.9693 14.9213C21.2016 14.6713 21.3306 14.3426 21.3306 14.0013C21.3306 13.6601 21.2016 13.3314 20.9693 13.0813C20.8264 12.9423 20.6621 12.8271 20.4827 12.74C20.2596 12.6219 20.0747 12.443 19.9493 12.224C19.8606 12.0316 19.7398 11.8558 19.592 11.704C19.3431 11.4655 19.0114 11.3326 18.6667 11.3333ZM9.33333 6C9.05521 6.00011 8.78408 6.08719 8.55791 6.24905C8.33173 6.41091 8.16183 6.63945 8.072 6.90267L7.89867 7.40667C7.49867 8.57867 6.57867 9.5 5.40533 9.9L4.90267 10.072C4.63974 10.1621 4.41154 10.3321 4.24997 10.5583C4.08841 10.7844 4.00156 11.0554 4.00156 11.3333C4.00156 11.6113 4.08841 11.8823 4.24997 12.1084C4.41154 12.3346 4.63974 12.5046 4.90267 12.5947L5.40667 12.768C6.57867 13.168 7.5 14.088 7.9 15.2613L8.072 15.764C8.1621 16.0269 8.33211 16.2551 8.55826 16.4167C8.78441 16.5783 9.0554 16.6651 9.33333 16.6651C9.61127 16.6651 9.88226 16.5783 10.1084 16.4167C10.3346 16.2551 10.5046 16.0269 10.5947 15.764L10.768 15.26C11.168 14.088 12.088 13.1667 13.2613 12.7667L13.764 12.5947C14.0269 12.5046 14.2551 12.3346 14.4167 12.1084C14.5783 11.8823 14.6651 11.6113 14.6651 11.3333C14.6651 11.0554 14.5783 10.7844 14.4167 10.5583C14.2551 10.3321 14.0269 10.1621 13.764 10.072L13.26 9.89867C12.6815 9.7012 12.156 9.37379 11.7238 8.94157C11.2915 8.50934 10.9641 7.98381 10.7667 7.40533L10.5947 6.90267C10.5048 6.63945 10.3349 6.41091 10.1088 6.24905C9.88259 6.08719 9.61146 6.00011 9.33333 6Z" fill="#D6E3F5"/>
</svg>
