<svg width="27" height="24" viewBox="0 0 27 24" fill="none" xmlns="http://www.w3.org/2000/svg">
<path fill-rule="evenodd" clip-rule="evenodd" d="M22.6667 9.33333C23.4767 9.33335 24.2677 9.57933 24.935 10.0387C25.6022 10.4981 26.1142 11.1493 26.4032 11.906C26.6923 12.6628 26.7448 13.4895 26.5537 14.2767C26.3627 15.0639 25.9371 15.7746 25.3333 16.3147V22.9213C25.3333 23.035 25.3043 23.1468 25.2489 23.2461C25.1935 23.3454 25.1136 23.4288 25.0169 23.4886C24.9202 23.5483 24.8098 23.5823 24.6962 23.5873C24.5826 23.5924 24.4696 23.5683 24.368 23.5173L22.6667 22.6667L20.9653 23.5173C20.8637 23.5683 20.7507 23.5924 20.6371 23.5873C20.5236 23.5823 20.4132 23.5483 20.3164 23.4886C20.2197 23.4288 20.1398 23.3454 20.0845 23.2461C20.0291 23.1468 20 23.035 20 22.9213V16.3147C19.3962 15.7746 18.9707 15.0639 18.7796 14.2767C18.5886 13.4895 18.641 12.6628 18.9301 11.906C19.2191 11.1493 19.7312 10.4981 20.3984 10.0387C21.0656 9.57933 21.8566 9.33335 22.6667 9.33333ZM24 0C24.7072 0 25.3855 0.280951 25.8856 0.781048C26.3857 1.28115 26.6667 1.95942 26.6667 2.66667V8C25.3829 7.03714 23.7948 6.56968 22.1941 6.68344C20.5933 6.7972 19.0874 7.48455 17.9526 8.61929C16.8179 9.75403 16.1305 11.26 16.0168 12.8607C15.903 14.4615 16.3705 16.0495 17.3333 17.3333V21.3333H2.66667C1.95942 21.3333 1.28115 21.0524 0.781048 20.5523C0.280951 20.0522 0 19.3739 0 18.6667V2.66667C0 1.95942 0.280951 1.28115 0.781048 0.781048C1.28115 0.280951 1.95942 0 2.66667 0H24ZM8 12H5.33333C4.97971 12 4.64057 12.1405 4.39052 12.3905C4.14048 12.6406 4 12.9797 4 13.3333C4 13.687 4.14048 14.0261 4.39052 14.2761C4.64057 14.5262 4.97971 14.6667 5.33333 14.6667H8C8.35362 14.6667 8.69276 14.5262 8.94281 14.2761C9.19286 14.0261 9.33333 13.687 9.33333 13.3333C9.33333 12.9797 9.19286 12.6406 8.94281 12.3905C8.69276 12.1405 8.35362 12 8 12ZM13.3333 6.66667H5.33333C4.99349 6.66704 4.66662 6.79717 4.41951 7.03046C4.17239 7.26376 4.02369 7.5826 4.00377 7.92186C3.98385 8.26111 4.09423 8.59517 4.31235 8.85578C4.53047 9.11638 4.83987 9.28386 5.17733 9.324L5.33333 9.33333H13.3333C13.6732 9.33296 14 9.20283 14.2472 8.96954C14.4943 8.73624 14.643 8.4174 14.6629 8.07814C14.6828 7.73888 14.5724 7.40483 14.3543 7.14422C14.1362 6.88362 13.8268 6.71614 13.4893 6.676L13.3333 6.66667Z" fill="#D6E3F5"/>
</svg>
