<svg width="27" height="25" viewBox="0 0 27 25" fill="none" xmlns="http://www.w3.org/2000/svg">
<path fill-rule="evenodd" clip-rule="evenodd" d="M11.5284 0.673898C12.0165 0.239799 12.6471 0 13.3004 0C13.9536 0 14.5842 0.239799 15.0724 0.673898L20.3177 5.33656L20.651 3.33123C20.6797 3.1585 20.7422 2.99311 20.8348 2.84452C20.9275 2.69593 21.0485 2.56703 21.1909 2.4652C21.3333 2.36336 21.4945 2.29058 21.665 2.25101C21.8356 2.21144 22.0123 2.20585 22.185 2.23456C22.3578 2.26328 22.5231 2.32574 22.6717 2.41837C22.8203 2.511 22.9492 2.63199 23.0511 2.77444C23.1529 2.91688 23.2257 3.07799 23.2652 3.24856C23.3048 3.41914 23.3104 3.59583 23.2817 3.76856L22.6737 7.4299L26.187 10.5539C26.4379 10.7922 26.5863 11.1187 26.6009 11.4643C26.6155 11.81 26.4951 12.1478 26.2653 12.4064C26.0354 12.665 25.714 12.8241 25.369 12.8501C25.024 12.8762 24.6824 12.7671 24.4164 12.5459L23.7977 11.9966L22.7484 22.4819C22.6825 23.1401 22.3744 23.7504 21.8838 24.1942C21.3932 24.638 20.7552 24.8835 20.0937 24.8832H6.50702C5.84573 24.8832 5.20804 24.6375 4.71774 24.1937C4.22743 23.75 3.91949 23.1399 3.85369 22.4819L2.80569 11.9966L2.18569 12.5459C1.91964 12.7671 1.57803 12.8762 1.23302 12.8501C0.888022 12.8241 0.566647 12.665 0.336789 12.4064C0.106931 12.1478 -0.0134101 11.81 0.0011886 11.4643C0.0157873 11.1187 0.164182 10.7922 0.415025 10.5539L11.5284 0.673898Z" fill="#D6E3F5"/>
</svg>
