<svg width="27" height="27" viewBox="0 0 27 27" fill="none" xmlns="http://www.w3.org/2000/svg">
<path d="M13.3333 0C20.6973 0 26.6667 5.96933 26.6667 13.3333C26.6667 20.6973 20.6973 26.6667 13.3333 26.6667H2.66667C1.95942 26.6667 1.28115 26.3857 0.781048 25.8856C0.280951 25.3855 0 24.7072 0 24V13.3333C0 5.96933 5.96933 0 13.3333 0ZM13.3333 16H9.33333C8.97971 16 8.64057 16.1405 8.39052 16.3905C8.14048 16.6406 8 16.9797 8 17.3333C8 17.687 8.14048 18.0261 8.39052 18.2761C8.64057 18.5262 8.97971 18.6667 9.33333 18.6667H13.3333C13.687 18.6667 14.0261 18.5262 14.2761 18.2761C14.5262 18.0261 14.6667 17.687 14.6667 17.3333C14.6667 16.9797 14.5262 16.6406 14.2761 16.3905C14.0261 16.1405 13.687 16 13.3333 16ZM17.3333 10.6667H9.33333C8.99349 10.667 8.66662 10.7972 8.41951 11.0305C8.17239 11.2638 8.02369 11.5826 8.00377 11.9219C7.98385 12.2611 8.09423 12.5952 8.31235 12.8558C8.53047 13.1164 8.83987 13.2839 9.17733 13.324L9.33333 13.3333H17.3333C17.6732 13.333 18 13.2028 18.2472 12.9695C18.4943 12.7362 18.643 12.4174 18.6629 12.0781C18.6828 11.7389 18.5724 11.4048 18.3543 11.1442C18.1362 10.8836 17.8268 10.7161 17.4893 10.676L17.3333 10.6667Z" fill="#D6E3F5"/>
</svg>
