<svg width="28" height="16" viewBox="0 0 28 16" fill="none" xmlns="http://www.w3.org/2000/svg">
<path d="M20.6421 0C20.1117 1.1178e-08 19.6029 0.210713 19.2279 0.585786C18.8528 0.960859 18.6421 1.46957 18.6421 2C18.6421 2.53043 18.8528 3.03914 19.2279 3.41421C19.6029 3.78929 20.1117 4 20.6421 4H21.1474L16.6421 8.50533L12.0554 3.91867C11.6804 3.54413 11.1721 3.33376 10.6421 3.33376C10.1121 3.33376 9.60375 3.54413 9.22875 3.91867L0.562088 12.5853C0.19759 12.9624 -0.00424037 13.4675 6.75712e-05 13.9919C0.00437551 14.5163 0.214477 15.018 0.58512 15.389C0.955763 15.76 1.45729 15.9706 1.98168 15.9754C2.50608 15.9802 3.01138 15.7788 3.38875 15.4147L10.6421 8.16133L15.2288 12.748C15.6038 13.1225 16.1121 13.3329 16.6421 13.3329C17.1721 13.3329 17.6804 13.1225 18.0554 12.748L23.9754 6.828V7.33333C23.9754 7.86377 24.1861 8.37247 24.5612 8.74755C24.9363 9.12262 25.445 9.33333 25.9754 9.33333C26.5059 9.33333 27.0146 9.12262 27.3896 8.74755C27.7647 8.37247 27.9754 7.86377 27.9754 7.33333V2C27.9754 1.46957 27.7647 0.960859 27.3896 0.585786C27.0146 0.210713 26.5059 0 25.9754 0H20.6421Z" fill="#D6E3F5"/>
</svg>
