<svg width="27" height="23" viewBox="0 0 27 23" fill="none" xmlns="http://www.w3.org/2000/svg">
<path d="M14.6667 13.3333C16.0812 13.3333 17.4377 13.8952 18.4379 14.8954C19.4381 15.8956 20 17.2522 20 18.6667V20.6667C20 21.1971 19.7893 21.7058 19.4142 22.0809C19.0391 22.456 18.5304 22.6667 18 22.6667H2C1.46957 22.6667 0.960859 22.456 0.585786 22.0809C0.210714 21.7058 0 21.1971 0 20.6667V18.6667C0 17.2522 0.561903 15.8956 1.5621 14.8954C2.56229 13.8952 3.91885 13.3333 5.33333 13.3333H14.6667ZM22.6667 13.3333C23.7275 13.3333 24.7449 13.7548 25.4951 14.5049C26.2452 15.2551 26.6667 16.2725 26.6667 17.3333V19.3333C26.6667 19.8638 26.456 20.3725 26.0809 20.7475C25.7058 21.1226 25.1971 21.3333 24.6667 21.3333H22.6667V18.6667C22.6675 17.6316 22.4269 16.6105 21.964 15.6847C21.5011 14.7588 20.8286 13.9537 20 13.3333H22.6667ZM10 0C11.5913 0 13.1174 0.632141 14.2426 1.75736C15.3679 2.88258 16 4.4087 16 6C16 7.5913 15.3679 9.11742 14.2426 10.2426C13.1174 11.3679 11.5913 12 10 12C8.4087 12 6.88258 11.3679 5.75736 10.2426C4.63214 9.11742 4 7.5913 4 6C4 4.4087 4.63214 2.88258 5.75736 1.75736C6.88258 0.632141 8.4087 0 10 0ZM21.3333 4C22.3942 4 23.4116 4.42143 24.1618 5.17157C24.9119 5.92172 25.3333 6.93913 25.3333 8C25.3333 9.06087 24.9119 10.0783 24.1618 10.8284C23.4116 11.5786 22.3942 12 21.3333 12C20.2725 12 19.2551 11.5786 18.5049 10.8284C17.7548 10.0783 17.3333 9.06087 17.3333 8C17.3333 6.93913 17.7548 5.92172 18.5049 5.17157C19.2551 4.42143 20.2725 4 21.3333 4Z" fill="#D6E3F5"/>
</svg>
