<svg width="27" height="27" viewBox="0 0 27 27" fill="none" xmlns="http://www.w3.org/2000/svg">
<path fill-rule="evenodd" clip-rule="evenodd" d="M13.3333 0C5.96933 0 0 5.96933 0 13.3333C0 20.6973 5.96933 26.6667 13.3333 26.6667C20.6973 26.6667 26.6667 20.6973 26.6667 13.3333C26.6667 5.96933 20.6973 0 13.3333 0ZM8.66667 10C8.66667 9.38716 8.78737 8.78033 9.02189 8.21414C9.25642 7.64796 9.60016 7.13351 10.0335 6.70017C10.4668 6.26683 10.9813 5.92308 11.5475 5.68856C12.1137 5.45404 12.7205 5.33333 13.3333 5.33333C13.9462 5.33333 14.553 5.45404 15.1192 5.68856C15.6854 5.92308 16.1998 6.26683 16.6332 6.70017C17.0665 7.13351 17.4102 7.64796 17.6448 8.21414C17.8793 8.78033 18 9.38716 18 10C18 11.2377 17.5083 12.4247 16.6332 13.2998C15.758 14.175 14.571 14.6667 13.3333 14.6667C12.0957 14.6667 10.9087 14.175 10.0335 13.2998C9.15833 12.4247 8.66667 11.2377 8.66667 10ZM21.6773 19.9787C20.6792 21.2342 19.4104 22.2479 17.9656 22.9443C16.5207 23.6406 14.9372 24.0015 13.3333 24C11.7294 24.0015 10.1459 23.6406 8.70111 22.9443C7.25626 22.2479 5.98742 21.2342 4.98933 19.9787C7.15067 18.428 10.1 17.3333 13.3333 17.3333C16.5667 17.3333 19.516 18.428 21.6773 19.9787Z" fill="#D6E3F5"/>
</svg>
