<svg width="28" height="28" viewBox="0 0 28 28" fill="none" xmlns="http://www.w3.org/2000/svg">
<path fill-rule="evenodd" clip-rule="evenodd" d="M12.0951 0.77982C12.5671 0.308452 13.1986 0.0310917 13.865 0.00245967C14.5315 -0.0261724 15.1844 0.196004 15.6951 0.625154L15.8658 0.781154L18.3991 3.31315H21.9804C22.653 3.31328 23.3006 3.56752 23.7936 4.02494C24.2867 4.48236 24.5886 5.10918 24.6391 5.77982L24.6471 5.97982V9.56115L27.1804 12.0945C27.6522 12.5665 27.9298 13.1983 27.9584 13.8651C27.987 14.5318 27.7646 15.1851 27.3351 15.6958L27.1791 15.8652L24.6458 18.3985V21.9798C24.646 22.6526 24.3919 23.3006 23.9344 23.7939C23.477 24.2872 22.85 24.5894 22.1791 24.6398L21.9804 24.6465H18.4004L15.8671 27.1798C15.395 27.6516 14.7633 27.9292 14.0965 27.9578C13.4298 27.9864 12.7765 27.764 12.2658 27.3345L12.0964 27.1798L9.5631 24.6465H5.98043C5.30766 24.6467 4.65967 24.3926 4.16636 23.9352C3.67306 23.4777 3.37089 22.8507 3.32043 22.1798L3.31376 21.9798V18.3985L0.780429 15.8652C0.308688 15.3931 0.0310927 14.7613 0.00245786 14.0946C-0.026177 13.4278 0.19623 12.7746 0.625762 12.2638L0.780429 12.0945L3.31376 9.56115V5.97982C3.31389 5.30728 3.56812 4.65963 4.02554 4.1666C4.48296 3.67357 5.10978 3.37159 5.78043 3.32115L5.98043 3.31315H9.56176L12.0951 0.77982ZM13.9804 9.97982C12.9196 9.97982 11.9021 10.4012 11.152 11.1514C10.4019 11.9015 9.98043 12.919 9.98043 13.9798C9.98043 15.0407 10.4019 16.0581 11.152 16.8082C11.9021 17.5584 12.9196 17.9798 13.9804 17.9798C15.0413 17.9798 16.0587 17.5584 16.8089 16.8082C17.559 16.0581 17.9804 15.0407 17.9804 13.9798C17.9804 12.919 17.559 11.9015 16.8089 11.1514C16.0587 10.4012 15.0413 9.97982 13.9804 9.97982Z" fill="#FAFCFF"/>
</svg>
