<svg width="32" height="32" viewBox="0 0 32 32" fill="none" xmlns="http://www.w3.org/2000/svg">
<path d="M0 16C0 20.2435 1.68571 24.3131 4.68629 27.3137C7.68687 30.3143 11.7565 32 16 32C20.2435 32 24.3131 30.3143 27.3137 27.3137C30.3143 24.3131 32 20.2435 32 16C32 11.7565 30.3143 7.68687 27.3137 4.68629C24.3131 1.68571 20.2435 0 16 0C11.7565 0 7.68687 1.68571 4.68629 4.68629C1.68571 7.68687 0 11.7565 0 16Z" fill="#FAFCFF"/>
<path fill-rule="evenodd" clip-rule="evenodd" d="M26.2513 0.866691C26.2026 0.670187 26.1025 0.490161 25.9613 0.34503C25.8202 0.199899 25.643 0.0948739 25.4479 0.0406985C25.2528 -0.013477 25.0469 -0.0148575 24.8511 0.036698C24.6553 0.0882536 24.4767 0.190894 24.3336 0.33412L19.7622 4.90555C19.6228 5.04526 19.5219 5.21869 19.4694 5.40896C19.417 5.59923 19.4147 5.79984 19.4628 5.99126L20.2856 9.29183L20.2536 9.32383L14.7885 14.789C14.4857 15.1139 14.3208 15.5438 14.3286 15.9879C14.3365 16.432 14.5164 16.8557 14.8305 17.1698C15.1446 17.4839 15.5683 17.6638 16.0124 17.6717C16.4565 17.6795 16.8864 17.5146 17.2113 17.2118L22.681 11.749L22.713 11.7147L26.0113 12.5398C26.2028 12.5879 26.4034 12.5856 26.5936 12.5331C26.7839 12.4807 26.9573 12.3798 27.097 12.2404L31.6685 7.66898C31.8123 7.52594 31.9155 7.3472 31.9674 7.15111C32.0193 6.95502 32.018 6.74865 31.9638 6.55319C31.9096 6.35773 31.8043 6.18022 31.6588 6.03889C31.5134 5.89755 31.3329 5.79749 31.1359 5.74898L27.2296 4.77526L26.2513 0.866691ZM16.7245 1.73526C16.7559 2.18868 16.6059 2.63601 16.3076 2.97891C16.0093 3.3218 15.587 3.5322 15.1336 3.56383C12.7455 3.72933 10.4551 4.57694 8.53454 6.00592C6.61399 7.43491 5.14404 9.38521 4.29936 11.6251C3.45468 13.865 3.27077 16.3002 3.76949 18.6416C4.26822 20.9829 5.4286 23.1318 7.11276 24.833C8.79693 26.5342 10.9341 27.7162 13.2703 28.2384C15.6064 28.7607 18.0434 28.6013 20.2917 27.7792C22.54 26.9572 24.505 25.5069 25.9532 23.6009C27.4015 21.6948 28.2721 19.413 28.4616 17.0267C28.4977 16.5732 28.7124 16.1527 29.0585 15.8576C29.4047 15.5624 29.8539 15.4169 30.3073 15.453C30.7608 15.489 31.1813 15.7038 31.4764 16.0499C31.7716 16.396 31.9171 16.8452 31.881 17.2987C31.6392 20.3392 30.5296 23.2463 28.684 25.6748C26.8385 28.1032 24.3347 29.9508 21.47 30.9981C18.6054 32.0454 15.5003 32.2483 12.5237 31.5828C9.54706 30.9173 6.82404 29.4113 4.67815 27.2438C2.53226 25.0762 1.05368 22.3382 0.418097 19.3551C-0.217489 16.3719 0.0166278 13.269 1.09263 10.415C2.16864 7.56102 4.0413 5.07588 6.48814 3.25485C8.93497 1.43382 11.8531 0.353462 14.8959 0.14212C15.3493 0.110717 15.7966 0.260658 16.1395 0.558978C16.4824 0.857298 16.6928 1.28186 16.7245 1.73526ZM15.1885 9.27355C15.2706 9.48321 15.3106 9.707 15.3063 9.93213C15.3019 10.1573 15.2532 10.3793 15.163 10.5856C15.0728 10.792 14.9428 10.9785 14.7805 11.1346C14.6182 11.2906 14.4267 11.4132 14.217 11.4953C13.4674 11.7893 12.8029 12.2655 12.2835 12.8809C11.7642 13.4962 11.4063 14.2313 11.2424 15.0196C11.0784 15.808 11.1135 16.6247 11.3444 17.3961C11.5754 18.1675 11.9949 18.8692 12.5651 19.4378C13.1353 20.0063 13.8382 20.4238 14.6103 20.6525C15.3823 20.8812 16.1992 20.9139 16.9871 20.7476C17.775 20.5814 18.509 20.2214 19.1228 19.7002C19.7366 19.1791 20.2109 18.5132 20.5028 17.7627C20.5844 17.5529 20.7066 17.3612 20.8623 17.1986C21.018 17.036 21.2042 16.9057 21.4103 16.815C21.6164 16.7244 21.8384 16.6753 22.0634 16.6704C22.2885 16.6655 22.5124 16.705 22.7222 16.7867C22.932 16.8683 23.1237 16.9905 23.2863 17.1462C23.4489 17.302 23.5792 17.4882 23.6698 17.6943C23.7605 17.9004 23.8096 18.1223 23.8145 18.3474C23.8194 18.5725 23.7798 18.7963 23.6982 19.0061C23.1997 20.2877 22.3896 21.4248 21.3413 22.3147C20.2929 23.2045 19.0393 23.8191 17.6938 24.1028C16.3483 24.3865 14.9533 24.3303 13.6349 23.9395C12.3165 23.5486 11.1163 22.8353 10.1428 21.8641C9.16935 20.8929 8.45326 19.6944 8.05931 18.377C7.66536 17.0595 7.60597 15.6646 7.8865 14.3185C8.16703 12.9723 8.77865 11.7172 9.66605 10.6668C10.5535 9.61635 11.6887 8.80363 12.969 8.30212C13.3922 8.13695 13.8636 8.14648 14.2798 8.32862C14.6959 8.51076 15.0227 8.85062 15.1885 9.27355Z" fill="#BF0D0D"/>
</svg>
