<svg width="16" height="16" viewBox="0 0 16 16" fill="none" xmlns="http://www.w3.org/2000/svg">
<path d="M12.5391 1.73267L12.4813 4.80122C12.4731 5.22223 12.7455 5.78088 13.0922 6.03187L15.1396 7.554C16.4522 8.52557 16.2376 9.71575 14.669 10.2015L12.0025 11.0193C11.5567 11.1569 11.0861 11.6346 10.9705 12.0799L10.3349 14.4603C9.83128 16.3386 8.57644 16.5248 7.53624 14.8732L6.08327 12.5657C5.81909 12.1447 5.19167 11.8289 4.69634 11.8532L1.93899 11.9908C-0.0340889 12.088 -0.595465 10.9707 0.692399 9.49714L2.327 7.63496C2.63245 7.28682 2.7728 6.6391 2.63245 6.2019L1.79039 3.57866C1.30331 2.04033 2.1784 1.19021 3.73869 1.69219L6.17408 2.47754C6.58686 2.60708 7.20602 2.51802 7.55275 2.26703L10.0955 0.469628C11.4741 -0.493847 12.5721 0.0729033 12.5391 1.73267Z" fill="#E5B734"/>
</svg>
