<svg width="11" height="14" viewBox="0 0 11 14" fill="none" xmlns="http://www.w3.org/2000/svg">
<path fill-rule="evenodd" clip-rule="evenodd" d="M0 2C0 1.46957 0.210714 0.960859 0.585787 0.585786C0.960859 0.210714 1.46957 0 2 0H9.33333C9.68696 0 10.0261 0.140476 10.2761 0.390524C10.5262 0.640573 10.6667 0.979711 10.6667 1.33333V9.99333C10.6667 10.1053 10.6413 10.208 10.5913 10.308L10.228 11.0347C10.1817 11.1273 10.1575 11.2294 10.1575 11.333C10.1575 11.4366 10.1817 11.5387 10.228 11.6313L10.59 12.3567C10.6434 12.4583 10.6696 12.5719 10.6662 12.6866C10.6627 12.8013 10.6298 12.9132 10.5704 13.0114C10.5111 13.1096 10.4274 13.1908 10.3275 13.2472C10.2275 13.3036 10.1147 13.3333 10 13.3333H2C1.46957 13.3333 0.960859 13.1226 0.585787 12.7475C0.210714 12.3725 0 11.8638 0 11.3333V2ZM2 10.6667H8.93867C8.78616 11.098 8.78616 11.5686 8.93867 12H2C1.82319 12 1.65362 11.9298 1.5286 11.8047C1.40357 11.6797 1.33333 11.5101 1.33333 11.3333C1.33333 11.1565 1.40357 10.987 1.5286 10.8619C1.65362 10.7369 1.82319 10.6667 2 10.6667ZM4 3.33333C3.82319 3.33333 3.65362 3.40357 3.5286 3.5286C3.40357 3.65362 3.33333 3.82319 3.33333 4C3.33333 4.17681 3.40357 4.34638 3.5286 4.4714C3.65362 4.59643 3.82319 4.66667 4 4.66667H6.66667C6.84348 4.66667 7.01305 4.59643 7.13807 4.4714C7.2631 4.34638 7.33333 4.17681 7.33333 4C7.33333 3.82319 7.2631 3.65362 7.13807 3.5286C7.01305 3.40357 6.84348 3.33333 6.66667 3.33333H4Z" fill="#88D982"/>
</svg>
