<svg width="14" height="14" viewBox="0 0 14 14" fill="none" xmlns="http://www.w3.org/2000/svg">
<path d="M6.66667 0C10.3487 0 13.3333 2.98467 13.3333 6.66667C13.3333 10.3487 10.3487 13.3333 6.66667 13.3333H1.33333C0.979711 13.3333 0.640573 13.1929 0.390524 12.9428C0.140476 12.6928 0 12.3536 0 12V6.66667C0 2.98467 2.98467 0 6.66667 0ZM6.66667 8H4.66667C4.48986 8 4.32029 8.07024 4.19526 8.19526C4.07024 8.32029 4 8.48985 4 8.66667C4 8.84348 4.07024 9.01305 4.19526 9.13807C4.32029 9.26309 4.48986 9.33333 4.66667 9.33333H6.66667C6.84348 9.33333 7.01305 9.26309 7.13807 9.13807C7.26309 9.01305 7.33333 8.84348 7.33333 8.66667C7.33333 8.48985 7.26309 8.32029 7.13807 8.19526C7.01305 8.07024 6.84348 8 6.66667 8ZM8.66667 5.33333H4.66667C4.49675 5.33352 4.33331 5.39859 4.20975 5.51523C4.0862 5.63188 4.01184 5.7913 4.00188 5.96093C3.99193 6.13056 4.04712 6.29759 4.15618 6.42789C4.26524 6.55819 4.41994 6.64193 4.58867 6.662L4.66667 6.66667H8.66667C8.83659 6.66648 9.00002 6.60141 9.12358 6.48477C9.24714 6.36812 9.32149 6.2087 9.33145 6.03907C9.34141 5.86944 9.28622 5.70241 9.17716 5.57211C9.0681 5.44181 8.9134 5.35807 8.74467 5.338L8.66667 5.33333Z" fill="#D6E3F5"/>
</svg>
