<svg width="60" height="62" viewBox="0 0 60 62" fill="none" xmlns="http://www.w3.org/2000/svg">
<path d="M27.2508 46.5928C27.2508 49.0933 29.2778 51.1203 31.7783 51.1203C34.2788 51.1203 36.3059 49.0933 36.3059 46.5928L31.7783 46.5928L27.2508 46.5928ZM31.7783 46.5928L36.3059 46.5928L36.3059 11.5679L31.7783 11.5679L27.2508 11.5679L27.2508 46.5928L31.7783 46.5928Z" fill="url(#paint0_linear_1094_15161)"/>
<path d="M15.6727 24.4062C17.7565 24.4006 19.4412 22.7069 19.4357 20.6232C19.4301 18.5394 17.7364 16.8547 15.6527 16.8602L15.6627 20.6332L15.6727 24.4062ZM15.6627 20.6332L15.6527 16.8602C12.5676 16.8684 11.2748 14.9072 11.272 13.8511L7.49902 13.8611L3.72606 13.8711C3.7432 20.3192 9.7604 24.4219 15.6727 24.4062L15.6627 20.6332ZM7.49902 13.8611L11.272 13.8511C11.2692 12.795 12.5515 10.8269 15.6366 10.8187L15.6266 7.04573L15.6165 3.27277C9.70422 3.28849 3.70892 7.4231 3.72606 13.8711L7.49902 13.8611Z" fill="url(#paint1_linear_1094_15161)"/>
<path d="M31.7788 41.9092V50.959C29.4314 50.8796 27.5532 48.9536 27.5532 46.5869V41.9092H31.7788Z" fill="url(#paint2_linear_1094_15161)" stroke="url(#paint3_linear_1094_15161)" stroke-width="0.301838"/>
<path d="M55.7749 0.254883C57.9749 0.254976 59.766 1.99808 59.8452 4.17871H52.9077V0.254883H55.7749Z" fill="url(#paint4_linear_1094_15161)" stroke="url(#paint5_linear_1094_15161)" stroke-width="0.301838"/>
<path fill-rule="evenodd" clip-rule="evenodd" d="M53.261 30.1151L48.7366 30.2694C46.1888 30.3563 43.7174 30.3651 41.3294 30.3065L47.0696 21.2538C47.5193 21.2435 47.9722 21.2342 48.428 21.2187L52.9524 21.0644L53.261 30.1151ZM38.7786 0.191313C45.2123 0.00769335 51.8977 -0.046682 55.5208 0.0409219C58.02 0.101815 59.9971 2.1773 59.9368 4.67666C59.8763 7.17631 57.8007 9.15399 55.301 9.09366C51.9062 9.01158 45.4004 9.0605 39.0374 9.24209C32.5576 9.42703 26.6755 9.73992 24.3059 10.122L24.0247 10.1679L23.7395 10.1776C19.4322 10.3244 16.0958 10.7515 13.6165 11.3339C11.3751 11.8605 10.064 12.4609 9.37818 12.912C9.49001 13.0391 9.6342 13.1919 9.8235 13.3661C11.7331 15.1235 16.0398 17.3323 22.884 18.9823C28.8729 20.4261 36.446 21.3502 45.2649 21.2812L39.5784 30.2509C32.4655 29.9721 26.1318 29.0796 20.762 27.7851C13.3353 25.9946 7.26812 23.3206 3.69166 20.0292C1.91325 18.3924 0.225738 16.1112 0.0207623 13.2519C-0.204253 10.1107 1.42731 7.60776 3.57447 5.93741C5.62031 4.34596 8.38566 3.26175 11.5452 2.51944C14.708 1.77638 18.5805 1.30639 23.1702 1.1376C26.3563 0.668811 32.6635 0.365841 38.7786 0.191313Z" fill="url(#paint6_linear_1094_15161)"/>
<path d="M6.38011 54.0026V52.7781H12.1493V54.0026H9.99873V59.8027H8.5307V54.0026H6.38011ZM13.8574 59.9022C13.5213 59.9022 13.2218 59.8439 12.9588 59.7273C12.6958 59.6084 12.4877 59.4334 12.3345 59.2025C12.1836 58.9693 12.1082 58.6788 12.1082 58.3313C12.1082 58.0386 12.1619 57.7928 12.2694 57.5938C12.3768 57.3949 12.5232 57.2348 12.7084 57.1136C12.8936 56.9924 13.104 56.901 13.3395 56.8392C13.5773 56.7775 13.8266 56.7341 14.0873 56.7089C14.3937 56.6769 14.6406 56.6472 14.8281 56.6197C15.0156 56.59 15.1517 56.5465 15.2363 56.4894C15.3209 56.4322 15.3632 56.3476 15.3632 56.2356V56.215C15.3632 55.9978 15.2946 55.8297 15.1574 55.7108C15.0225 55.5919 14.8304 55.5324 14.5812 55.5324C14.3182 55.5324 14.109 55.5907 13.9535 55.7073C13.798 55.8217 13.6951 55.9657 13.6448 56.1395L12.2934 56.0298C12.362 55.7096 12.4969 55.4329 12.6981 55.1997C12.8993 54.9642 13.1589 54.7835 13.4767 54.6578C13.7969 54.5297 14.1673 54.4657 14.588 54.4657C14.8807 54.4657 15.1608 54.5 15.4284 54.5686C15.6982 54.6372 15.9372 54.7435 16.1452 54.8876C16.3556 55.0316 16.5214 55.2169 16.6426 55.4432C16.7638 55.6673 16.8244 55.936 16.8244 56.2493V59.8027H15.4387V59.0721H15.3975C15.3129 59.2368 15.1997 59.382 15.0579 59.5078C14.9162 59.6312 14.7458 59.7284 14.5469 59.7993C14.3479 59.8679 14.1181 59.9022 13.8574 59.9022ZM14.2759 58.8938C14.4909 58.8938 14.6806 58.8515 14.8453 58.7669C15.0099 58.68 15.1391 58.5634 15.2329 58.417C15.3266 58.2707 15.3735 58.1049 15.3735 57.9197V57.3606C15.3278 57.3903 15.2649 57.4178 15.1848 57.4429C15.1071 57.4658 15.0191 57.4875 14.9207 57.5081C14.8224 57.5264 14.7241 57.5435 14.6258 57.5595C14.5274 57.5733 14.4383 57.5858 14.3582 57.5973C14.1867 57.6224 14.037 57.6624 13.9089 57.7173C13.7808 57.7722 13.6814 57.8465 13.6105 57.9403C13.5396 58.0317 13.5042 58.1461 13.5042 58.2833C13.5042 58.4822 13.5762 58.6343 13.7203 58.7394C13.8666 58.8423 14.0518 58.8938 14.2759 58.8938ZM19.4192 52.7781V59.8027H17.958V52.7781H19.4192ZM22.9906 59.9056C22.4487 59.9056 21.9822 59.7959 21.5912 59.5764C21.2025 59.3546 20.9029 59.0413 20.6925 58.6365C20.4822 58.2295 20.377 57.7482 20.377 57.1925C20.377 56.6506 20.4822 56.175 20.6925 55.7657C20.9029 55.3563 21.199 55.0374 21.5809 54.8087C21.965 54.58 22.4155 54.4657 22.9323 54.4657C23.2799 54.4657 23.6034 54.5217 23.903 54.6338C24.2048 54.7435 24.4678 54.9093 24.6919 55.1311C24.9183 55.3529 25.0943 55.6319 25.2201 55.968C25.3459 56.3019 25.4087 56.6929 25.4087 57.1411V57.5424H20.9601V56.6369H24.0333C24.0333 56.4265 23.9876 56.2401 23.8961 56.0778C23.8047 55.9154 23.6777 55.7885 23.5154 55.6971C23.3553 55.6033 23.169 55.5564 22.9563 55.5564C22.7345 55.5564 22.5379 55.6079 22.3664 55.7108C22.1971 55.8114 22.0645 55.9474 21.9685 56.1189C21.8724 56.2882 21.8233 56.4768 21.821 56.6849V57.5458C21.821 57.8065 21.869 58.0317 21.965 58.2215C22.0634 58.4113 22.2017 58.5577 22.3801 58.6606C22.5584 58.7635 22.77 58.8149 23.0146 58.8149C23.177 58.8149 23.3256 58.792 23.4605 58.7463C23.5954 58.7006 23.7109 58.632 23.8069 58.5405C23.903 58.449 23.9762 58.337 24.0265 58.2044L25.3779 58.2935C25.3093 58.6183 25.1686 58.9018 24.956 59.1442C24.7456 59.3843 24.4735 59.5718 24.1397 59.7067C23.8081 59.8393 23.4251 59.9056 22.9906 59.9056ZM27.8234 56.7569V59.8027H26.3623V54.5343H27.7548V55.4638H27.8166C27.9332 55.1574 28.1287 54.915 28.4031 54.7367C28.6775 54.556 29.0102 54.4657 29.4012 54.4657C29.7671 54.4657 30.0861 54.5457 30.3582 54.7058C30.6303 54.8659 30.8418 55.0945 30.9927 55.3918C31.1437 55.6868 31.2191 56.0389 31.2191 56.4482V59.8027H29.758V56.7089C29.7602 56.3865 29.6779 56.1349 29.511 55.9543C29.3441 55.7714 29.1143 55.6799 28.8216 55.6799C28.6249 55.6799 28.4511 55.7222 28.3002 55.8068C28.1516 55.8914 28.035 56.0149 27.9504 56.1773C27.868 56.3373 27.8257 56.5305 27.8234 56.7569ZM35.173 54.5343V55.6319H32.0003V54.5343H35.173ZM32.7206 53.2721H34.1818V58.1838C34.1818 58.3187 34.2023 58.4239 34.2435 58.4993C34.2847 58.5725 34.3418 58.624 34.415 58.6537C34.4905 58.6834 34.5773 58.6983 34.6757 58.6983C34.7443 58.6983 34.8129 58.6926 34.8815 58.6811C34.9501 58.6674 35.0027 58.6571 35.0393 58.6503L35.2691 59.7376C35.1959 59.7604 35.093 59.7867 34.9604 59.8165C34.8277 59.8485 34.6665 59.8679 34.4767 59.8748C34.1246 59.8885 33.8159 59.8416 33.5506 59.7341C33.2877 59.6267 33.083 59.4597 32.9367 59.2334C32.7903 59.007 32.7183 58.7211 32.7206 58.3759V53.2721Z" fill="#FAFCFF"/>
<path d="M36.2655 59.8027V52.7781H40.9165V54.0026H37.7506V55.6765H40.6078V56.901H37.7506V59.8027H36.2655ZM43.3492 52.7781V59.8027H41.8881V52.7781H43.3492ZM46.9001 59.9056C46.3673 59.9056 45.9066 59.7924 45.5178 59.5661C45.1314 59.3374 44.833 59.0196 44.6226 58.6125C44.4122 58.2032 44.307 57.7287 44.307 57.1891C44.307 56.6449 44.4122 56.1692 44.6226 55.7622C44.833 55.3529 45.1314 55.0351 45.5178 54.8087C45.9066 54.58 46.3673 54.4657 46.9001 54.4657C47.4329 54.4657 47.8925 54.58 48.279 54.8087C48.6677 55.0351 48.9672 55.3529 49.1776 55.7622C49.388 56.1692 49.4932 56.6449 49.4932 57.1891C49.4932 57.7287 49.388 58.2032 49.1776 58.6125C48.9672 59.0196 48.6677 59.3374 48.279 59.5661C47.8925 59.7924 47.4329 59.9056 46.9001 59.9056ZM46.907 58.7737C47.1493 58.7737 47.3517 58.7051 47.5141 58.5679C47.6764 58.4285 47.7988 58.2387 47.8811 57.9986C47.9657 57.7585 48.008 57.4852 48.008 57.1788C48.008 56.8724 47.9657 56.5991 47.8811 56.359C47.7988 56.1189 47.6764 55.9292 47.5141 55.7897C47.3517 55.6502 47.1493 55.5804 46.907 55.5804C46.6623 55.5804 46.4565 55.6502 46.2896 55.7897C46.1249 55.9292 46.0003 56.1189 45.9157 56.359C45.8334 56.5991 45.7922 56.8724 45.7922 57.1788C45.7922 57.4852 45.8334 57.7585 45.9157 57.9986C46.0003 58.2387 46.1249 58.4285 46.2896 58.5679C46.4565 58.7051 46.6623 58.7737 46.907 58.7737ZM51.3505 59.8027L49.9168 54.5343H51.3951L52.2114 58.074H52.2594L53.1101 54.5343H54.5609L55.4253 58.0534H55.4699L56.2725 54.5343H57.7474L56.3171 59.8027H54.7702L53.8647 56.4894H53.7995L52.894 59.8027H51.3505Z" fill="#3B82F6"/>
<defs>
<linearGradient id="paint0_linear_1094_15161" x1="31.7783" y1="29.0803" x2="32.7783" y2="29.0803" gradientUnits="userSpaceOnUse">
<stop stop-color="#60A5FA"/>
<stop offset="1" stop-color="#1D4ED8"/>
</linearGradient>
<linearGradient id="paint1_linear_1094_15161" x1="11.5538" y1="7.05656" x2="11.5899" y2="20.644" gradientUnits="userSpaceOnUse">
<stop stop-color="#60A5FA"/>
<stop offset="1" stop-color="#1D4ED8"/>
</linearGradient>
<linearGradient id="paint2_linear_1094_15161" x1="29.6656" y1="41.7578" x2="29.6656" y2="51.1148" gradientUnits="userSpaceOnUse">
<stop stop-color="#60A5FA"/>
<stop offset="1" stop-color="#1D4ED8"/>
</linearGradient>
<linearGradient id="paint3_linear_1094_15161" x1="29.6656" y1="41.7578" x2="29.6656" y2="51.1148" gradientUnits="userSpaceOnUse">
<stop stop-color="#60A5FA"/>
<stop offset="1" stop-color="#1D4ED8"/>
</linearGradient>
<linearGradient id="paint4_linear_1094_15161" x1="56.3784" y1="0.103516" x2="56.3784" y2="4.32924" gradientUnits="userSpaceOnUse">
<stop stop-color="#3B82F6"/>
<stop offset="1" stop-color="#2DD4BF"/>
</linearGradient>
<linearGradient id="paint5_linear_1094_15161" x1="56.3784" y1="0.103516" x2="56.3784" y2="4.32924" gradientUnits="userSpaceOnUse">
<stop stop-color="#60A5FA"/>
<stop offset="1" stop-color="#1D4ED8"/>
</linearGradient>
<linearGradient id="paint6_linear_1094_15161" x1="29.9691" y1="0" x2="29.9691" y2="30.3438" gradientUnits="userSpaceOnUse">
<stop stop-color="#60A5FA"/>
<stop offset="1" stop-color="#1D4ED8"/>
</linearGradient>
</defs>
</svg>
